<?xml version="1.0" encoding="utf-8"?>
<!-- Generator: Adobe Illustrator 22.1.0, SVG Export Plug-In . SVG Version: 6.00 Build 0)  -->
<svg version="1.1" id="Layer_1" xmlns="http://www.w3.org/2000/svg" xmlns:xlink="http://www.w3.org/1999/xlink" x="0px" y="0px"
	 viewBox="0 0 200 250" style="enable-background:new 0 0 200 250;" xml:space="preserve">
<style type="text/css">
	.st0{fill:none;stroke:#93B431;stroke-width:8;stroke-dasharray:220.6665,35.9225;}
	.st1{fill:#282828;}
</style>
<path class="st0" d="M35.4,109.6c-18.2,18.2-12.2,42.4,1,55.6c13.4,13.4,37.3,19.2,55.6,1c27.3-27.3-11.2-102,16.1-129.3
	c18.2-18.2,40.9-13.6,55.6,1c12.9,12.9,19.2,37.3,1,55.6C137.3,120.7,62.7,82.3,35.4,109.6z">
<animate  accumulate="none" additive="replace" attributeName="stroke-dashoffset" begin="0s" calcMode="linear" dur="1" fill="remove" keyTimes="0;1" repeatCount="indefinite" restart="always" values="0;256.58892822265625">
		</animate>
</path>
<g>
	<path class="st1" d="M28.1,205.3h5.8v25.2h-5.8V205.3z"/>
	<path class="st1" d="M65.3,205.3v25.2h-4.8L48,215.2v15.3h-5.8v-25.2H47l12.5,15.3v-15.3H65.3z"/>
	<path class="st1" d="M90.6,217.5H96v10.2c-1.4,1-3,1.8-4.8,2.4c-1.8,0.6-3.6,0.8-5.4,0.8c-2.6,0-5-0.6-7.1-1.7
		c-2.1-1.1-3.7-2.7-4.9-4.6c-1.2-2-1.8-4.2-1.8-6.7s0.6-4.7,1.8-6.7c1.2-2,2.8-3.5,5-4.6s4.5-1.7,7.1-1.7c2.2,0,4.2,0.4,6,1.1
		c1.8,0.7,3.3,1.8,4.5,3.2l-3.7,3.5c-1.8-1.9-4-2.8-6.5-2.8c-1.6,0-3,0.3-4.3,1c-1.2,0.7-2.2,1.6-2.9,2.8c-0.7,1.2-1,2.6-1,4.2
		c0,1.6,0.3,3,1,4.2c0.7,1.2,1.7,2.2,2.9,2.9c1.2,0.7,2.6,1,4.2,1c1.7,0,3.2-0.4,4.5-1.1V217.5z"/>
	<path class="st1" d="M119.7,230.5l-4.9-7h-0.3h-5.1v7h-5.8v-25.2h10.9c2.2,0,4.2,0.4,5.8,1.1c1.6,0.7,2.9,1.8,3.8,3.2
		s1.3,3,1.3,4.9s-0.5,3.5-1.3,4.8c-0.9,1.4-2.2,2.4-3.8,3.1l5.7,8.1H119.7z M118.3,211.2c-0.9-0.8-2.2-1.1-4-1.1h-4.8v8.8h4.8
		c1.8,0,3.1-0.4,4-1.2c0.9-0.8,1.4-1.8,1.4-3.2C119.6,213,119.2,211.9,118.3,211.2z"/>
	<path class="st1" d="M132.4,205.3h5.8v25.2h-5.8V205.3z"/>
	<path class="st1" d="M146.5,205.3H158c2.7,0,5.2,0.5,7.3,1.6c2.1,1,3.7,2.5,4.9,4.4s1.7,4.1,1.7,6.6c0,2.5-0.6,4.7-1.7,6.6
		c-1.2,1.9-2.8,3.4-4.9,4.4c-2.1,1-4.5,1.6-7.3,1.6h-11.4V205.3z M157.7,225.7c2.5,0,4.5-0.7,6-2.1c1.5-1.4,2.3-3.3,2.3-5.7
		c0-2.4-0.8-4.3-2.3-5.7c-1.5-1.4-3.5-2.1-6-2.1h-5.3v15.6H157.7z"/>
</g>
</svg>
