<?xml version="1.0" encoding="utf-8"?>
<!-- Generator: Adobe Illustrator 22.1.0, SVG Export Plug-In . SVG Version: 6.00 Build 0)  -->
<svg version="1.2" baseProfile="tiny" id="Layer_1" xmlns="http://www.w3.org/2000/svg" xmlns:xlink="http://www.w3.org/1999/xlink"
	 x="0px" y="0px" viewBox="0 0 834.6 196.8" xml:space="preserve">
<g>
	<g>
		<g>
			<g>
				<path fill="#FFFFFF" d="M92.8,112.3v38.5c0,25.4-20.6,46-46,46l0,0C20.9,196.8,0,175.9,0,150.1l0,0c0-25.4,20.6-46,46-46h38.5
					C89,104,92.8,107.8,92.8,112.3z"/>
				<path fill="#FFFFFF" d="M133.9,46.3L133.9,46.3c0,25.6-20.7,46.4-46.4,46.4H49.4c-4.6,0-8.3-3.7-8.3-8.3V46.4
					C41.2,20.7,61.9,0,87.6,0l0,0C113.1,0,133.9,20.7,133.9,46.3z"/>
			</g>
		</g>
	</g>
	<g>
		<path fill="#FFFFFF" d="M217.5,44.5h25v107.9h-25V44.5z"/>
		<path fill="#FFFFFF" d="M377.1,44.5v107.9h-20.5l-53.8-65.5v65.5h-24.7V44.5h20.7l53.6,65.5V44.5H377.1z"/>
		<path fill="#FFFFFF" d="M485.8,96.7h22.8v43.8c-5.9,4.4-12.6,7.8-20.3,10.2c-7.7,2.4-15.5,3.5-23.3,3.5c-11.2,0-21.3-2.4-30.2-7.2
			c-8.9-4.8-16-11.4-21-19.9c-5.1-8.5-7.6-18.1-7.6-28.7c0-10.7,2.5-20.3,7.6-28.7c5.1-8.5,12.2-15.1,21.2-19.9
			c9-4.8,19.2-7.2,30.5-7.2c9.5,0,18,1.6,25.7,4.8c7.7,3.2,14.2,7.8,19.4,13.9l-16,14.8c-7.7-8.1-17-12.2-27.9-12.2
			c-6.9,0-13,1.4-18.3,4.3c-5.3,2.9-9.5,6.9-12.5,12.2c-3,5.2-4.5,11.3-4.5,18c0,6.7,1.5,12.6,4.5,17.9c3,5.2,7.1,9.3,12.4,12.3
			s11.3,4.4,18.1,4.4c7.2,0,13.7-1.5,19.4-4.6V96.7z"/>
		<path fill="#FFFFFF" d="M610.6,152.4l-20.8-30.1h-1.2h-21.7v30.1h-25V44.5h46.7c9.6,0,17.9,1.6,24.9,4.8c7,3.2,12.5,7.7,16.3,13.6
			c3.8,5.9,5.7,12.8,5.7,20.8s-1.9,14.9-5.8,20.7c-3.9,5.8-9.3,10.2-16.4,13.3l24.2,34.7H610.6z M604.3,69.7
			c-3.9-3.2-9.6-4.9-17.1-4.9h-20.3v37.6h20.3c7.5,0,13.2-1.6,17.1-4.9c3.9-3.3,5.9-7.9,5.9-13.9C610.2,77.6,608.2,72.9,604.3,69.7z
			"/>
		<path fill="#FFFFFF" d="M665.4,44.5h25v107.9h-25V44.5z"/>
		<path fill="#FFFFFF" d="M726.1,44.5h49c11.7,0,22.1,2.2,31.1,6.7c9,4.5,16,10.8,21,18.9c5,8.1,7.5,17.6,7.5,28.4
			c0,10.8-2.5,20.2-7.5,28.4c-5,8.1-12,14.4-21,18.9c-9,4.5-19.3,6.7-31.1,6.7h-49V44.5z M773.9,131.9c10.8,0,19.4-3,25.8-9
			c6.4-6,9.6-14.2,9.6-24.4S806.1,80,799.7,74c-6.4-6-15-9-25.8-9H751v66.9H773.9z"/>
	</g>
</g>
</svg>
